<svg width="649" height="683" viewBox="0 0 649 683" fill="none" xmlns="http://www.w3.org/2000/svg">
<path d="M324.5 0L397.355 230.788H633.118L442.382 373.423L515.236 604.212L324.5 461.577L133.764 604.212L206.618 373.423L15.8822 230.788H251.645L324.5 0Z" fill="black"/>
<path d="M323 48L445.11 247.5H200.89L323 48Z" fill="black"/>
<path d="M640 363L440.5 485.11V240.89L640 363Z" fill="black"/>
<path d="M5 363.11L204.5 241L204.5 485.219L5 363.11Z" fill="black"/>
<path d="M323.11 682.5L201 483H445.219L323.11 682.5Z" fill="black"/>
<path d="M464 360.536C464 439.769 400.872 504 323 504C245.128 504 182 439.769 182 360.536C182 281.303 245.128 223 323 223C400.872 223 464 281.303 464 360.536Z" fill="#3AF753"/>
</svg>
